<svg width="325" height="17" viewBox="0 0 325 17" fill="none" xmlns="http://www.w3.org/2000/svg">
<path d="M12.6976 8.42805C13.4249 9.02609 13.9786 9.69132 14.3586 10.4237C14.751 11.1438 15.1302 12.031 15.4961 13.0852C15.8012 13.9411 16.0456 14.5428 16.2295 14.8904L10.7699 14.862C10.6968 14.6512 10.5996 14.2854 10.4785 13.7648C10.3577 13.1947 10.224 12.7174 10.0774 12.3328C9.94323 11.9483 9.74689 11.613 9.48839 11.3269C9.06978 10.8791 8.54511 10.5916 7.91437 10.4645C7.29608 10.3251 6.44221 10.2526 5.35277 10.2469L5.32891 14.8337L0.704968 14.8097C0.8165 12.4084 0.877707 10.1617 0.888589 8.0695C0.899471 5.97728 0.861638 3.73004 0.775089 1.3278L5.39903 1.35185L5.37382 6.19863C5.49756 6.21166 5.68323 6.21881 5.93083 6.2201C7.87203 4.32362 9.31655 2.70931 10.2644 1.37715L16.2811 1.40845L10.4759 7.13513C11.2913 7.46126 12.0318 7.89223 12.6976 8.42805ZM26.2163 1.47869C28.6799 1.49151 30.3922 1.93992 31.3533 2.82392C32.3144 3.69555 32.7909 4.92368 32.7827 6.50833C32.777 7.59777 32.5803 8.52528 32.1925 9.29084C31.8048 10.044 31.127 10.6348 30.1591 11.063C29.1913 11.4789 27.8593 11.6825 26.1632 11.6737L22.3007 11.6536L22.2837 14.9219L17.7154 14.8981C17.827 12.4969 17.8882 10.2502 17.8991 8.15798C17.9099 6.06575 17.8721 3.81852 17.7856 1.41627L22.3538 1.44003L22.3537 1.4586L26.2163 1.47869ZM24.882 8.08287C25.9095 8.08822 26.6773 8.05507 27.1852 7.98343C27.7057 7.89947 28.0654 7.75278 28.2646 7.54335C28.4762 7.33398 28.583 7.02503 28.5851 6.61649C28.5873 6.20795 28.4898 5.90412 28.2928 5.70501C28.1081 5.49358 27.7561 5.34938 27.2365 5.27239C26.7293 5.19547 25.9495 5.15428 24.8972 5.1488L22.3346 5.13548L22.3193 8.06954L24.882 8.08287ZM38.6183 11.6084C43.3229 11.6082 46.7339 11.5578 48.8515 11.4574C48.7622 11.9645 48.7037 12.4904 48.6762 13.035C48.661 13.5673 48.6513 14.2419 48.6471 15.059L34.2181 14.984C34.3296 12.5828 34.3909 10.336 34.4017 8.24381C34.4126 6.15158 34.3748 3.90435 34.2882 1.50211L48.7172 1.57715L48.6997 4.93833L38.6533 4.88608L38.644 6.66881C39.2382 6.68428 40.1171 6.69504 41.2809 6.70109C43.2493 6.71133 45.286 6.68478 47.391 6.62145L47.3744 9.8155C45.2702 9.73027 43.2338 9.68254 41.2654 9.6723C40.1017 9.66625 39.2227 9.66787 38.6284 9.67716L38.6183 11.6084ZM62.0395 15.1287C61.808 14.4218 61.4969 13.535 61.1063 12.4682L55.1824 12.4374L54.2401 15.0881L49.579 15.0639L54.8488 1.60905L61.6826 1.64459L66.8492 15.1537L62.0395 15.1287ZM60.0629 9.56579C59.5992 8.26344 59.1231 6.96103 58.6347 5.65855L58.1953 4.44918C57.7561 5.57351 57.1097 7.27245 56.256 9.54599L60.0629 9.56579ZM83.8416 5.65966C81.8983 5.58765 80.0105 5.54069 78.1783 5.51878L78.1279 15.2124L73.4854 15.1882L73.5358 5.49463C71.6911 5.49742 69.8091 5.52477 67.8899 5.57669L67.9102 1.67698L83.8619 1.75995L83.8416 5.65966ZM89.9055 1.80995L89.5356 12.2261L94.1023 1.83178L100.936 1.86732C100.839 3.9591 100.784 6.19966 100.771 8.58901C100.759 10.9907 100.79 13.2379 100.866 15.3306L96.0936 15.3058L96.4805 5.16828L91.9339 15.2842L85.2858 15.2496C85.3973 12.8484 85.4585 10.6016 85.4694 8.50942C85.4802 6.42958 85.4424 4.18853 85.3558 1.78629L89.9055 1.80995ZM113.268 8.69115C116.09 8.70583 117.497 9.61072 117.488 11.4058C117.483 12.2477 117.288 12.9647 116.901 13.557C116.514 14.1368 115.824 14.5913 114.832 14.9204C113.84 15.2372 112.465 15.3909 110.707 15.3818L102.351 15.3383C102.462 12.9371 102.523 10.6904 102.534 8.59818C102.545 6.50595 102.507 4.25872 102.421 1.85648L106.785 1.87917L106.785 1.89774L110.74 1.91832C112.275 1.9263 113.482 2.06257 114.359 2.32712C115.249 2.57936 115.873 2.94782 116.229 3.43251C116.598 3.91726 116.78 4.53104 116.777 5.27384C116.773 6.02903 116.503 6.70235 115.968 7.29383C115.445 7.87298 114.545 8.33876 113.268 8.69115ZM106.767 5.27749L106.758 7.00451L110.324 7.02305C111.091 7.02705 111.624 6.96172 111.922 6.82709C112.232 6.69252 112.388 6.44572 112.39 6.0867C112.391 5.80196 112.231 5.60304 111.91 5.48995C111.601 5.36454 111.075 5.2999 110.333 5.29604L106.767 5.27749ZM110.298 11.9813C110.941 11.9846 111.431 11.9624 111.765 11.9146C112.112 11.8545 112.36 11.7568 112.51 11.6214C112.659 11.4736 112.734 11.2759 112.735 11.0283C112.737 10.7064 112.559 10.4764 112.2 10.3384C111.855 10.188 111.224 10.1104 110.307 10.1057L106.742 10.0871L106.732 11.9627L110.298 11.9813ZM134.576 2.02372C134.478 4.11549 134.423 6.36225 134.411 8.76397C134.398 11.1657 134.43 13.4129 134.506 15.5056L130.142 15.4829L130.168 10.4318L123.334 10.3963L123.308 15.4473L118.944 15.4246C119.056 13.0234 119.117 10.7767 119.128 8.68448C119.139 6.59226 119.101 4.34502 119.014 1.94278L123.378 1.96548L123.352 7.01653L130.186 7.05208L130.212 2.00102L134.576 2.02372ZM144.253 15.742C141.418 15.7272 139.336 15.1036 138.005 13.871C136.674 12.626 136.015 10.8894 136.026 8.66095C136.038 6.45731 136.709 4.73993 138.04 3.50881C139.384 2.27776 141.479 1.66964 144.327 1.68445C147.186 1.69933 149.275 2.32921 150.594 3.5741C151.924 4.81906 152.584 6.54336 152.572 8.74701C152.561 10.9878 151.889 12.7176 150.558 13.9363C149.227 15.155 147.126 15.7569 144.253 15.742ZM144.273 11.9537C145.647 11.9608 146.639 11.706 147.248 11.1892C147.858 10.66 148.165 9.83832 148.171 8.72412C148.177 7.63468 147.878 6.82221 147.274 6.28671C146.67 5.75121 145.681 5.47989 144.307 5.47274C142.945 5.46566 141.959 5.72671 141.35 6.2559C140.741 6.78509 140.433 7.5944 140.427 8.68384C140.422 9.78567 140.721 10.6043 141.325 11.1398C141.929 11.6753 142.911 11.9466 144.273 11.9537ZM158.417 12.2315C163.122 12.2312 166.533 12.1809 168.65 12.0805C168.561 12.5876 168.502 13.1135 168.475 13.6581C168.46 14.1903 168.45 14.865 168.446 15.6821L154.017 15.6071C154.128 13.2058 154.189 10.9591 154.2 8.8669C154.211 6.77468 154.173 4.52744 154.087 2.1252L168.516 2.20025L168.498 5.56143L158.452 5.50917L158.443 7.2919C159.037 7.30737 159.916 7.31813 161.08 7.32418C163.048 7.33442 165.085 7.30788 167.19 7.24454L167.173 10.4386C165.069 10.3534 163.032 10.3056 161.064 10.2954C159.9 10.2893 159.021 10.291 158.427 10.3002L158.417 12.2315ZM185.556 15.7711C185.324 15.0642 185.013 14.1774 184.623 13.1107L178.699 13.0798L177.756 15.7305L173.095 15.7063L178.365 2.25147L185.199 2.28702L190.365 15.7961L185.556 15.7711ZM183.579 10.2082C183.115 8.90587 182.639 7.60346 182.151 6.30098L181.712 5.09161C181.272 6.21593 180.626 7.91487 179.772 10.1884L183.579 10.2082ZM195.887 15.8248L191.356 15.8013C191.468 13.3877 191.529 11.141 191.54 9.06111C191.551 6.96889 191.513 4.72165 191.426 2.31941L204.574 2.38779C204.544 3.40283 204.528 4.17651 204.525 4.70886C204.521 5.365 204.525 5.86023 204.536 6.19456L195.938 6.14984L195.887 15.8248ZM210.391 12.5019C215.096 12.5016 218.507 12.4512 220.625 12.3508C220.535 12.8579 220.477 13.3838 220.449 13.9284C220.434 14.4607 220.424 15.1354 220.42 15.9524L205.991 15.8774C206.103 13.4762 206.164 11.2295 206.175 9.13723C206.186 7.045 206.148 4.79777 206.061 2.39553L220.49 2.47057L220.473 5.83175L210.426 5.7795L210.417 7.56223C211.011 7.5777 211.89 7.58846 213.054 7.59451C215.022 7.60475 217.059 7.5782 219.164 7.51487L219.147 10.7089C217.043 10.6237 215.007 10.576 213.038 10.5657C211.875 10.5597 210.996 10.5613 210.401 10.5706L210.391 12.5019ZM237.727 2.56022C237.629 4.652 237.574 6.89875 237.562 9.30048C237.549 11.7022 237.581 13.9494 237.657 16.0421L233.293 16.0194L233.319 10.9683L226.485 10.9328L226.459 15.9838L222.095 15.9611C222.206 13.5599 222.268 11.3132 222.278 9.22099C222.289 7.12876 222.252 4.88153 222.165 2.47929L226.529 2.50198L226.503 7.55304L233.336 7.58858L233.363 2.53753L237.727 2.56022ZM255.143 6.55063C253.2 6.47862 251.312 6.43166 249.48 6.40975L249.429 16.1033L244.787 16.0792L244.837 6.3856C242.993 6.38839 241.111 6.41574 239.191 6.46766L239.212 2.56795L255.163 2.65092L255.143 6.55063ZM264.757 16.3687C261.959 16.3542 259.901 15.7492 258.583 14.5539C257.264 13.3585 256.611 11.659 256.622 9.45533C256.634 7.2393 257.305 5.49097 258.636 4.21034C259.968 2.9297 262.032 2.29666 264.83 2.31121C268.742 2.33156 271.354 3.68841 272.664 6.38177C271.548 6.75976 270.239 7.32864 268.737 8.08841C268.382 7.39326 267.815 6.87652 267.037 6.53821C266.271 6.19995 265.486 6.02873 264.681 6.02455C263.492 6.01837 262.606 6.32945 262.021 6.95781C261.435 7.57378 261.141 8.33983 261.136 9.25596C261.131 10.2464 261.436 11.0589 262.052 11.6935C262.68 12.3157 263.638 12.6302 264.925 12.6369C265.953 12.6423 266.771 12.4794 267.379 12.1483C267.987 11.8048 268.436 11.2624 268.725 10.5211C269.737 11.0711 271.034 11.6907 272.615 12.3798C271.988 13.8746 270.949 14.9153 269.497 15.502C268.046 16.0887 266.466 16.3776 264.757 16.3687ZM290.107 6.73248C288.164 6.66047 286.276 6.61351 284.444 6.5916L284.393 16.2852L279.751 16.261L279.801 6.56745C277.957 6.57024 276.075 6.59759 274.155 6.64951L274.176 2.7498L290.127 2.83277L290.107 6.73248ZM302.468 9.67521C305.291 9.68989 306.697 10.5948 306.688 12.3899C306.684 13.2317 306.488 13.9488 306.101 14.541C305.714 15.1209 305.025 15.5754 304.033 15.9045C303.041 16.2212 301.666 16.375 299.908 16.3659L291.551 16.3224C291.663 13.9212 291.724 11.6745 291.735 9.58224C291.746 7.49002 291.708 5.24278 291.621 2.84054L295.985 2.86324L295.985 2.88181L299.941 2.90238C301.476 2.91036 302.682 3.04663 303.56 3.31118C304.45 3.56342 305.073 3.93188 305.43 4.41657C305.799 4.90133 305.981 5.5151 305.977 6.25791C305.973 7.01309 305.704 7.68642 305.168 8.27789C304.645 8.85705 303.745 9.32282 302.468 9.67521ZM295.968 6.26156L295.959 7.98857L299.524 8.00712C300.292 8.01111 300.824 7.94579 301.122 7.81115C301.432 7.67658 301.588 7.42979 301.59 7.07076C301.592 6.78602 301.432 6.58711 301.111 6.47401C300.802 6.3486 300.276 6.28396 299.533 6.2801L295.968 6.26156ZM299.498 12.9653C300.142 12.9687 300.631 12.9465 300.966 12.8987C301.313 12.8386 301.561 12.7408 301.71 12.6054C301.859 12.4576 301.935 12.2599 301.936 12.0123C301.938 11.6905 301.759 11.4605 301.401 11.3224C301.055 11.1721 300.424 11.0945 299.508 11.0897L295.943 11.0712L295.933 12.9468L299.498 12.9653ZM316.407 16.6374C313.572 16.6226 311.489 15.999 310.159 14.7664C308.828 13.5214 308.169 11.7848 308.18 9.55635C308.192 7.35271 308.863 5.63533 310.194 4.40421C311.538 3.17316 313.633 2.56504 316.48 2.57985C319.34 2.59473 321.429 3.22461 322.747 4.46951C324.078 5.71446 324.738 7.43877 324.726 9.64241C324.714 11.8832 324.043 13.613 322.712 14.8317C321.381 16.0504 319.279 16.6523 316.407 16.6374ZM316.427 12.8491C317.801 12.8562 318.793 12.6014 319.402 12.0846C320.012 11.5554 320.319 10.7337 320.325 9.61952C320.331 8.53008 320.032 7.71761 319.428 7.18211C318.824 6.64661 317.835 6.37529 316.461 6.36814C315.099 6.36106 314.113 6.62211 313.504 7.1513C312.895 7.68049 312.587 8.4898 312.581 9.57925C312.576 10.6811 312.875 11.4997 313.479 12.0352C314.082 12.5707 315.065 12.842 316.427 12.8491Z" fill="white"/>
</svg>
