<svg width="404" height="39" viewBox="0 0 404 39" fill="none" xmlns="http://www.w3.org/2000/svg">
<path d="M8.82431 24.9426C17.3017 24.9421 23.4483 24.8514 27.2641 24.6704C27.1031 25.5843 26.9978 26.5319 26.9481 27.5132C26.9208 28.4723 26.9033 29.6881 26.8957 31.1604L0.895314 31.0252C1.09629 26.6983 1.20658 22.6498 1.22619 18.8797C1.2458 15.1096 1.17763 11.0602 1.02167 6.73142L27.022 6.86665L26.9905 12.9234L8.88732 12.8292L8.87061 16.0416C9.94129 16.0695 11.5251 16.0889 13.6221 16.0998C17.1691 16.1182 20.8392 16.0704 24.6323 15.9563L24.6024 21.7118C20.8107 21.5582 17.1413 21.4722 13.5943 21.4538C11.4973 21.4429 9.91333 21.4458 8.84241 21.4625L8.82431 24.9426ZM11.5367 5.28026C10.9344 5.27713 10.4224 5.06253 10.0008 4.63647C9.5791 4.2104 9.36984 3.69621 9.37298 3.09388C9.37599 2.51387 9.59053 2.01303 10.0166 1.59138C10.4427 1.16973 10.9569 0.960465 11.5592 0.963597C12.1392 0.966614 12.64 1.18115 13.0617 1.60722C13.4833 2.03328 13.6927 2.53632 13.6896 3.11634C13.6865 3.71866 13.4719 4.23065 13.0458 4.6523C12.6198 5.07396 12.1167 5.28328 11.5367 5.28026ZM16.9242 5.30828C16.3219 5.30515 15.8099 5.09055 15.3882 4.66449C14.9666 4.23842 14.7573 3.72423 14.7604 3.12191C14.7635 2.54189 14.978 2.04105 15.4041 1.6194C15.8301 1.19775 16.3443 0.988486 16.9466 0.991619C17.5267 0.994635 18.0275 1.20918 18.4491 1.63524C18.8708 2.0613 19.0801 2.56434 19.0771 3.14436C19.074 3.74668 18.8594 4.25867 18.4333 4.68033C18.0072 5.10198 17.5042 5.3113 16.9242 5.30828ZM47.8808 18.8212L57.5871 31.3201L47.9164 31.2698L43.1319 24.686L38.2457 31.2195L28.5751 31.1692L38.4109 18.7719L29.0361 6.87713L38.7067 6.92743L43.1928 12.9742L47.7081 6.97425L57.3788 7.02455L47.8808 18.8212ZM73.6236 16.2445C76.6798 16.2604 79.0763 16.5964 80.813 17.2524C82.5498 17.8861 83.7611 18.7624 84.4468 19.8814C85.1326 21.0004 85.4712 22.3742 85.4627 24.0027C85.4504 26.3674 84.5709 28.1921 82.8241 29.477C81.0773 30.7618 77.9843 31.3927 73.5449 31.3696L67.5886 31.3386L67.5884 31.3721L59.3566 31.3293C59.5576 27.0024 59.6679 22.9539 59.6875 19.1838C59.7071 15.4137 59.639 11.3642 59.483 7.03549L84.1449 7.16376L84.1099 13.8897L67.6798 13.8043L67.6673 16.2136L73.6236 16.2445ZM72.2365 25.5736C73.7758 25.5816 74.9361 25.5319 75.7175 25.4244C76.5212 25.317 77.0798 25.1415 77.3934 24.8977C77.7293 24.6541 77.8985 24.2868 77.9011 23.7961C77.9036 23.3053 77.7383 22.9252 77.4051 22.6557C77.0718 22.3863 76.504 22.1937 75.7014 22.078C74.8989 21.9623 73.7503 21.9005 72.2557 21.8927L67.6378 21.8687L67.6187 25.5496L72.2365 25.5736ZM96.0785 7.25929L95.412 26.0288L103.641 7.29863L115.955 7.36267C115.779 11.132 115.68 15.1694 115.658 19.4749C115.635 23.8027 115.693 27.8521 115.829 31.623L107.229 31.5783L107.927 13.3109L99.7336 31.5393L87.754 31.477C87.955 27.1501 88.0653 23.1016 88.0849 19.3315C88.1044 15.5837 88.0362 11.5454 87.8802 7.21665L96.0785 7.25929ZM133.822 7.4556C138.262 7.47869 141.347 8.28671 143.079 9.87965C144.811 11.4503 145.67 13.6633 145.655 16.5188C145.645 18.4819 145.29 20.1533 144.591 21.5328C143.893 22.89 142.671 23.9545 140.927 24.7262C139.183 25.4756 136.783 25.8424 133.727 25.8265L126.767 25.7903L126.736 31.6797L118.504 31.6369C118.705 27.31 118.815 23.2615 118.835 19.4914C118.855 15.7213 118.787 11.6719 118.631 7.34313L126.862 7.38594L126.862 7.4194L133.822 7.4556ZM131.418 19.3561C133.27 19.3657 134.653 19.306 135.568 19.1769C136.506 19.0256 137.155 18.7613 137.513 18.3839C137.895 18.0066 138.087 17.4499 138.091 16.7137C138.095 15.9775 137.919 15.43 137.564 15.0713C137.231 14.6903 136.597 14.4304 135.661 14.2917C134.747 14.1531 133.342 14.0789 131.446 14.069L126.828 14.045L126.8 19.3321L131.418 19.3561ZM169.225 6.90354C174.267 6.92977 177.975 8.10912 180.35 10.4416C182.725 12.7741 183.902 15.9369 183.881 19.9301C183.861 23.901 182.651 26.951 180.253 29.0802C177.855 31.2094 174.135 32.2609 169.093 32.2347C166.015 32.2186 163.173 31.6684 160.569 30.5841C157.964 29.4997 156.111 27.605 155.01 24.8998C157.872 23.6877 160.22 22.5957 162.054 21.6236C162.56 22.9648 163.358 23.9505 164.448 24.5808C165.538 25.1888 167.009 25.4977 168.861 25.5073C170.623 25.5165 172.097 25.2564 173.282 24.7272C174.489 24.1757 175.352 23.3771 175.871 22.3313L164.092 22.27L164.121 16.6483L175.699 16.7085C175.191 15.7466 174.403 14.9952 173.335 14.4542C172.29 13.891 170.986 13.6054 169.425 13.5973C167.974 13.5897 166.545 13.8835 165.137 14.4785C163.75 15.0736 162.731 15.9941 162.077 17.24C159.385 15.8429 157.037 14.7933 155.033 14.0913C157.445 9.26279 162.176 6.86688 169.225 6.90354ZM200.659 6.89972C199.611 6.89427 198.642 6.65498 197.752 6.18187C196.884 5.70887 196.196 5.03602 195.687 4.16333C195.179 3.29063 194.928 2.27427 194.934 1.11424L198.246 1.13147C198.242 2.00149 198.462 2.64959 198.906 3.07577C199.372 3.47976 199.962 3.68361 200.676 3.68732C201.39 3.69103 201.971 3.49328 202.419 3.09405C202.89 2.67263 203.127 2.0269 203.132 1.15688L206.445 1.17411C206.439 2.33414 206.177 3.34784 205.659 4.21519C205.142 5.08255 204.435 5.74814 203.541 6.21198C202.668 6.67593 201.708 6.90517 200.659 6.89972ZM194.832 7.77293L194.166 26.5424L202.395 7.81226L214.709 7.87631C214.533 11.6456 214.434 15.683 214.412 19.9885C214.389 24.3163 214.446 28.3657 214.583 32.1366L205.983 32.0919L206.68 13.8245L198.487 32.0529L186.508 31.9906C186.709 27.6637 186.819 23.6152 186.838 19.8451C186.858 16.0973 186.79 12.059 186.634 7.73028L194.832 7.77293ZM245.364 26.3402L246.736 26.3474L246.676 37.825L238.745 37.7838L238.771 32.9317L223.846 32.8541L223.821 37.8065L215.89 37.7653L215.95 26.1872L217.623 26.1959C218.584 26.0225 219.322 25.6359 219.838 25.0362C220.354 24.4366 220.738 23.4793 220.991 22.1644C221.197 21.0723 221.31 18.5855 221.331 14.7038L221.333 7.8773L245.459 8.03624L245.364 26.3402ZM228.774 24.815C228.637 25.439 228.512 25.9179 228.398 26.252L236.898 26.2962L236.959 14.5174L229.463 14.4784L229.42 16.4191C229.411 18.1145 229.359 19.6089 229.263 20.9023C229.189 22.1736 229.026 23.4778 228.774 24.815ZM274.147 18.7599C275.081 19.3225 275.947 20.0186 276.746 20.8481C277.745 21.9242 278.508 23.1217 279.037 24.4406C279.565 25.7373 280.081 27.3351 280.584 29.234C280.934 30.6859 281.263 31.7695 281.571 32.485L273.407 32.4426C273.341 32.2414 273.21 31.5938 273.015 30.4997C272.842 29.4502 272.657 28.5792 272.46 27.8866C272.285 27.1941 272.02 26.5904 271.666 26.0755C271.179 25.3367 270.658 24.754 270.102 24.3272C269.547 23.9005 268.89 23.5847 268.133 23.38C268.162 26.3919 268.213 29.4039 268.287 32.4159L261.661 32.3815C261.788 29.3927 261.871 26.4149 261.908 23.448C261.238 23.6453 260.645 23.9546 260.13 24.3758C259.637 24.7971 259.155 25.3411 258.683 26.0079C258.323 26.5192 258.041 27.1201 257.837 27.8106C257.655 28.5012 257.472 29.3703 257.288 30.4179C257.081 31.5099 256.944 32.1562 256.876 32.3566L248.711 32.3141C249.027 31.6019 249.368 30.5217 249.732 29.0735C250.255 27.1799 250.787 25.5876 251.33 24.2965C251.872 22.9831 252.648 21.7936 253.657 20.7281C254.465 19.9068 255.338 19.2198 256.278 18.667L248.168 8.01687L257.136 8.06352C257.732 9.40515 258.449 10.8478 259.289 12.3915C260.129 13.9129 261.002 15.3452 261.91 16.6884C261.923 14.1453 261.883 11.2784 261.788 8.08771L268.413 8.12217C268.309 11.0664 268.226 14.0108 268.166 16.9552C268.256 16.9557 268.311 16.9671 268.334 16.9896C269.278 15.6336 270.2 14.1772 271.1 12.6202C272.001 11.041 272.767 9.55028 273.399 8.1481L282.367 8.19475L274.147 18.7599ZM291.948 26.4152C300.426 26.4147 306.572 26.324 310.388 26.143C310.227 27.0568 310.122 28.0044 310.072 28.9858C310.045 29.9449 310.027 31.1607 310.02 32.633L284.019 32.4978C284.22 28.1709 284.331 24.1224 284.35 20.3523C284.37 16.5822 284.302 12.5327 284.146 8.204L310.146 8.33923L310.115 14.3959L292.011 14.3018L291.995 17.5142C293.065 17.5421 294.649 17.5615 296.746 17.5724C300.293 17.5908 303.963 17.543 307.756 17.4288L307.726 23.1844C303.935 23.0308 300.265 22.9448 296.718 22.9264C294.621 22.9155 293.037 22.9184 291.966 22.9351L291.948 26.4152ZM341.206 8.50078C341.03 12.2701 340.931 16.3186 340.908 20.6464C340.886 24.9743 340.943 29.0236 341.079 32.7945L333.216 32.7536L333.263 23.6518L320.949 23.5878L320.901 32.6896L313.038 32.6487C313.239 28.3218 313.349 24.2733 313.369 20.5032C313.388 16.7331 313.32 12.6837 313.164 8.35493L321.028 8.39583L320.98 17.4976L333.295 17.5617L333.342 8.45988L341.206 8.50078ZM358.477 33.2197C353.435 33.1934 349.726 32.1033 347.351 29.9493C344.975 27.7953 343.797 24.7328 343.818 20.762C343.839 16.7688 345.049 13.6184 347.448 11.3107C349.847 9.00305 353.567 7.86234 358.609 7.88856C365.658 7.92522 370.364 10.3702 372.726 15.2235C370.714 15.9047 368.355 16.9298 365.649 18.2988C365.008 17.0462 363.987 16.1151 362.585 15.5054C361.205 14.8959 359.79 14.5874 358.34 14.5798C356.198 14.5687 354.6 15.1293 353.546 16.2615C352.491 17.3715 351.96 18.7519 351.951 20.4027C351.942 22.1874 352.492 23.6515 353.602 24.795C354.734 25.9163 356.46 26.483 358.78 26.4951C360.631 26.5047 362.105 26.2112 363.201 25.6146C364.298 24.9956 365.106 24.0182 365.626 22.6824C367.45 23.6735 369.787 24.7899 372.636 26.0318C371.506 28.7253 369.634 30.6006 367.018 31.6579C364.403 32.7151 361.555 33.2357 358.477 33.2197ZM383.647 8.75498L382.98 27.5245L391.209 8.79432L403.524 8.85836C403.348 12.6277 403.249 16.6651 403.226 20.9706C403.204 25.2984 403.261 29.3478 403.397 33.1187L394.798 33.0739L395.495 14.8066L387.302 33.035L375.322 32.9727C375.523 28.6458 375.634 24.5973 375.653 20.8272C375.673 17.0794 375.604 13.0411 375.449 8.71234L383.647 8.75498Z" fill="#3FFF52"/>
</svg>
