<svg width="968" height="504" viewBox="0 0 968 504" fill="none" xmlns="http://www.w3.org/2000/svg">
<rect width="968" height="504" rx="3" fill="#3FFF52"/>
<path d="M185.738 301.297C187.19 302.478 188.298 303.795 189.061 305.247C189.849 306.675 190.612 308.435 191.35 310.527C191.966 312.226 192.458 313.419 192.827 314.109H181.972C181.824 313.69 181.627 312.964 181.381 311.93C181.135 310.798 180.864 309.85 180.569 309.087C180.298 308.324 179.904 307.66 179.388 307.093C178.551 306.207 177.505 305.641 176.249 305.395C175.018 305.124 173.32 304.989 171.154 304.989V314.109H161.96C162.157 309.333 162.256 304.866 162.256 300.706C162.256 296.546 162.157 292.079 161.96 287.303H171.154V296.94C171.4 296.965 171.769 296.977 172.262 296.977C176.102 293.186 178.957 289.962 180.828 287.303H192.79L181.307 298.749C182.932 299.389 184.409 300.238 185.738 301.297ZM212.544 287.34C217.442 287.34 220.851 288.214 222.771 289.962C224.691 291.685 225.651 294.122 225.651 297.272C225.651 299.438 225.27 301.284 224.507 302.811C223.744 304.312 222.402 305.494 220.482 306.355C218.562 307.192 215.916 307.61 212.544 307.61H204.864V314.109H195.781C195.978 309.333 196.077 304.866 196.077 300.706C196.077 296.546 195.978 292.079 195.781 287.303H204.864V287.34H212.544ZM209.959 300.484C212.002 300.484 213.529 300.411 214.538 300.263C215.572 300.091 216.285 299.795 216.679 299.377C217.098 298.958 217.307 298.343 217.307 297.531C217.307 296.718 217.11 296.115 216.716 295.722C216.347 295.303 215.645 295.02 214.612 294.872C213.602 294.725 212.052 294.651 209.959 294.651H204.864V300.484H209.959ZM237.306 307.352C246.66 307.303 253.441 307.167 257.65 306.946C257.478 307.955 257.367 309.001 257.318 310.084C257.293 311.143 257.281 312.484 257.281 314.109H228.593C228.79 309.333 228.888 304.866 228.888 300.706C228.888 296.546 228.79 292.079 228.593 287.303H257.281V293.986H237.306V297.531C238.488 297.555 240.236 297.568 242.549 297.568C246.463 297.568 250.512 297.494 254.697 297.346V303.697C250.512 303.549 246.463 303.475 242.549 303.475C240.236 303.475 238.488 303.487 237.306 303.512V307.352ZM283.909 314.109C283.441 312.706 282.813 310.946 282.026 308.829H270.248L268.402 314.109H259.134L269.472 287.303H283.06L293.472 314.109H283.909ZM279.921 303.069C278.986 300.484 278.026 297.9 277.041 295.315L276.155 292.915C275.294 295.155 274.026 298.54 272.352 303.069H279.921ZM327.158 295.057C323.293 294.934 319.539 294.86 315.896 294.835V314.109H306.666V294.835C302.998 294.86 299.257 294.934 295.442 295.057V287.303H327.158V295.057ZM339.174 287.34L338.546 308.053L347.518 287.34H361.105C360.933 291.5 360.847 295.955 360.847 300.706C360.847 305.481 360.933 309.949 361.105 314.109H351.617L352.281 293.949L343.346 314.109H330.128C330.325 309.333 330.423 304.866 330.423 300.706C330.423 296.571 330.325 292.116 330.128 287.34H339.174ZM385.693 300.78C391.306 300.78 394.112 302.564 394.112 306.134C394.112 307.807 393.73 309.235 392.967 310.416C392.204 311.573 390.838 312.484 388.869 313.149C386.9 313.789 384.167 314.109 380.672 314.109H364.057C364.254 309.333 364.353 304.866 364.353 300.706C364.353 296.546 364.254 292.079 364.057 287.303H372.734V287.34H380.598C383.65 287.34 386.05 287.599 387.798 288.116C389.57 288.608 390.813 289.334 391.527 290.294C392.266 291.254 392.635 292.472 392.635 293.949C392.635 295.451 392.106 296.792 391.047 297.974C390.013 299.131 388.229 300.066 385.693 300.78ZM372.734 294.06V297.494H379.823C381.349 297.494 382.407 297.358 382.998 297.088C383.613 296.817 383.921 296.325 383.921 295.611C383.921 295.045 383.601 294.651 382.961 294.429C382.346 294.183 381.3 294.06 379.823 294.06H372.734ZM379.823 307.352C381.103 307.352 382.075 307.303 382.74 307.204C383.429 307.081 383.921 306.884 384.217 306.614C384.512 306.318 384.66 305.924 384.66 305.432C384.66 304.792 384.303 304.337 383.589 304.066C382.9 303.771 381.644 303.623 379.823 303.623H372.734V307.352H379.823ZM427.989 287.303C427.817 291.463 427.731 295.931 427.731 300.706C427.731 305.481 427.817 309.949 427.989 314.109H419.313V304.066H405.726V314.109H397.049C397.246 309.333 397.344 304.866 397.344 300.706C397.344 296.546 397.246 292.079 397.049 287.303H405.726V297.346H419.313V287.303H427.989ZM447.372 314.478C441.736 314.478 437.588 313.259 434.93 310.823C432.271 308.361 430.942 304.915 430.942 300.484C430.942 296.103 432.259 292.682 434.893 290.22C437.551 287.759 441.711 286.528 447.372 286.528C453.058 286.528 457.218 287.759 459.852 290.22C462.51 292.682 463.839 296.103 463.839 300.484C463.839 304.94 462.523 308.386 459.889 310.823C457.255 313.259 453.083 314.478 447.372 314.478ZM447.372 306.946C450.104 306.946 452.074 306.429 453.28 305.395C454.486 304.337 455.089 302.7 455.089 300.484C455.089 298.318 454.486 296.706 453.28 295.648C452.074 294.589 450.104 294.06 447.372 294.06C444.665 294.06 442.708 294.589 441.502 295.648C440.296 296.706 439.693 298.318 439.693 300.484C439.693 302.675 440.296 304.3 441.502 305.358C442.708 306.417 444.665 306.946 447.372 306.946ZM475.496 307.352C484.849 307.303 491.631 307.167 495.84 306.946C495.667 307.955 495.557 309.001 495.507 310.084C495.483 311.143 495.47 312.484 495.47 314.109H466.782C466.979 309.333 467.078 304.866 467.078 300.706C467.078 296.546 466.979 292.079 466.782 287.303H495.47V293.986H475.496V297.531C476.677 297.555 478.425 297.568 480.739 297.568C484.652 297.568 488.701 297.494 492.886 297.346V303.697C488.701 303.549 484.652 303.475 480.739 303.475C478.425 303.475 476.677 303.487 475.496 303.512V307.352ZM529.49 314.109C529.022 312.706 528.394 310.946 527.607 308.829H515.829L513.982 314.109H504.715L515.053 287.303H528.64L539.052 314.109H529.49ZM525.502 303.069C524.567 300.484 523.607 297.9 522.622 295.315L521.736 292.915C520.875 295.155 519.607 298.54 517.933 303.069H525.502ZM550.031 314.109H541.023C541.219 309.309 541.318 304.841 541.318 300.706C541.318 296.546 541.219 292.079 541.023 287.303H567.163C567.114 289.322 567.089 290.86 567.089 291.919C567.089 293.223 567.102 294.208 567.126 294.872H550.031V314.109ZM578.834 307.352C588.187 307.303 594.969 307.167 599.178 306.946C599.005 307.955 598.895 309.001 598.845 310.084C598.821 311.143 598.808 312.484 598.808 314.109H570.12C570.317 309.333 570.416 304.866 570.416 300.706C570.416 296.546 570.317 292.079 570.12 287.303H598.808V293.986H578.834V297.531C580.015 297.555 581.763 297.568 584.077 297.568C587.99 297.568 592.039 297.494 596.224 297.346V303.697C592.039 303.549 587.99 303.475 584.077 303.475C581.763 303.475 580.015 303.487 578.834 303.512V307.352ZM633.079 287.303C632.907 291.463 632.82 295.931 632.82 300.706C632.82 305.481 632.907 309.949 633.079 314.109H624.402V304.066H610.815V314.109H602.138C602.335 309.333 602.434 304.866 602.434 300.706C602.434 296.546 602.335 292.079 602.138 287.303H610.815V297.346H624.402V287.303H633.079ZM667.747 295.057C663.883 294.934 660.129 294.86 656.486 294.835V314.109H647.256V294.835C643.588 294.86 639.847 294.934 636.031 295.057V287.303H667.747V295.057ZM686.963 314.478C681.401 314.478 677.302 313.296 674.668 310.933C672.035 308.57 670.718 305.198 670.718 300.817C670.718 296.411 672.035 292.928 674.668 290.368C677.302 287.808 681.401 286.528 686.963 286.528C694.742 286.528 699.948 289.199 702.581 294.54C700.366 295.303 697.769 296.448 694.791 297.974C694.077 296.595 692.945 295.574 691.394 294.909C689.868 294.245 688.305 293.912 686.705 293.912C684.342 293.912 682.582 294.54 681.425 295.795C680.268 297.026 679.69 298.552 679.69 300.374C679.69 302.343 680.305 303.955 681.536 305.21C682.791 306.441 684.699 307.057 687.259 307.057C689.302 307.057 690.926 306.724 692.133 306.06C693.339 305.37 694.225 304.287 694.791 302.811C696.809 303.894 699.394 305.112 702.544 306.466C701.314 309.444 699.258 311.524 696.379 312.706C693.499 313.887 690.36 314.478 686.963 314.478ZM737.264 295.057C733.4 294.934 729.646 294.86 726.003 294.835V314.109H716.773V294.835C713.105 294.86 709.364 294.934 705.548 295.057V287.303H737.264V295.057ZM761.871 300.78C767.483 300.78 770.289 302.564 770.289 306.134C770.289 307.807 769.908 309.235 769.145 310.416C768.382 311.573 767.015 312.484 765.046 313.149C763.077 313.789 760.345 314.109 756.85 314.109H740.235C740.432 309.333 740.53 304.866 740.53 300.706C740.53 296.546 740.432 292.079 740.235 287.303H748.911V287.34H756.776C759.828 287.34 762.228 287.599 763.976 288.116C765.748 288.608 766.991 289.334 767.705 290.294C768.443 291.254 768.812 292.472 768.812 293.949C768.812 295.451 768.283 296.792 767.225 297.974C766.191 299.131 764.406 300.066 761.871 300.78ZM748.911 294.06V297.494H756C757.527 297.494 758.585 297.358 759.176 297.088C759.791 296.817 760.099 296.325 760.099 295.611C760.099 295.045 759.779 294.651 759.139 294.429C758.523 294.183 757.477 294.06 756 294.06H748.911ZM756 307.352C757.28 307.352 758.253 307.303 758.917 307.204C759.606 307.081 760.099 306.884 760.394 306.614C760.69 306.318 760.837 305.924 760.837 305.432C760.837 304.792 760.48 304.337 759.766 304.066C759.077 303.771 757.822 303.623 756 303.623H748.911V307.352H756ZM789.657 314.478C784.02 314.478 779.872 313.259 777.214 310.823C774.556 308.361 773.227 304.915 773.227 300.484C773.227 296.103 774.543 292.682 777.177 290.22C779.836 287.759 783.995 286.528 789.657 286.528C795.343 286.528 799.503 287.759 802.136 290.22C804.795 292.682 806.124 296.103 806.124 300.484C806.124 304.94 804.807 308.386 802.173 310.823C799.539 313.259 795.367 314.478 789.657 314.478ZM789.657 306.946C792.389 306.946 794.358 306.429 795.564 305.395C796.77 304.337 797.373 302.7 797.373 300.484C797.373 298.318 796.77 296.706 795.564 295.648C794.358 294.589 792.389 294.06 789.657 294.06C786.949 294.06 784.992 294.589 783.786 295.648C782.58 296.706 781.977 298.318 781.977 300.484C781.977 302.675 782.58 304.3 783.786 305.358C784.992 306.417 786.949 306.946 789.657 306.946Z" fill="black"/>
<path d="M92.3628 245.825C109.217 245.736 121.437 245.492 129.022 245.093C128.711 246.911 128.512 248.796 128.423 250.748C128.379 252.655 128.356 255.073 128.356 258H76.6613C77.0161 249.395 77.1935 241.345 77.1935 233.849C77.1935 226.353 77.0161 218.303 76.6613 209.698H128.356V221.74H92.3628V228.127C94.4918 228.172 97.6409 228.194 101.81 228.194C108.863 228.194 116.159 228.061 123.699 227.795V239.238C116.159 238.972 108.863 238.839 101.81 238.839C97.6409 238.839 94.4918 238.861 92.3628 238.905V245.825ZM97.5522 206.704C96.3547 206.704 95.3345 206.283 94.4918 205.44C93.649 204.597 93.2277 203.577 93.2277 202.379C93.2277 201.226 93.649 200.228 94.4918 199.386C95.3345 198.543 96.3547 198.121 97.5522 198.121C98.7055 198.121 99.7034 198.543 100.546 199.386C101.389 200.228 101.81 201.226 101.81 202.379C101.81 203.577 101.389 204.597 100.546 205.44C99.7034 206.283 98.7055 206.704 97.5522 206.704ZM108.264 206.704C107.066 206.704 106.046 206.283 105.203 205.44C104.361 204.597 103.939 203.577 103.939 202.379C103.939 201.226 104.361 200.228 105.203 199.386C106.046 198.543 107.066 198.121 108.264 198.121C109.417 198.121 110.415 198.543 111.258 199.386C112.101 200.228 112.522 201.226 112.522 202.379C112.522 203.577 112.101 204.597 111.258 205.44C110.415 206.283 109.417 206.704 108.264 206.704ZM169.951 233.25L189.378 258H170.151L160.57 244.96L150.923 258H131.695L151.123 233.25L132.361 209.698H151.588L160.57 221.674L169.486 209.698H188.713L169.951 233.25ZM221.106 227.861C227.183 227.861 231.951 228.504 235.411 229.791C238.87 231.032 241.288 232.762 242.663 234.98C244.038 237.198 244.725 239.926 244.725 243.163C244.725 247.865 242.995 251.502 239.536 254.075C236.076 256.647 229.933 257.933 221.106 257.933H209.264V258H192.897C193.252 249.395 193.429 241.345 193.429 233.849C193.429 226.353 193.252 218.303 192.897 209.698H241.931V223.071H209.264V227.861H221.106ZM218.445 246.423C221.506 246.423 223.812 246.313 225.364 246.091C226.961 245.869 228.07 245.514 228.691 245.026C229.356 244.538 229.689 243.807 229.689 242.831C229.689 241.855 229.356 241.101 228.691 240.569C228.026 240.036 226.895 239.659 225.298 239.438C223.701 239.216 221.417 239.105 218.445 239.105H209.264V246.423H218.445ZM265.658 209.764L264.527 247.089L280.694 209.764H305.178C304.868 217.26 304.712 225.289 304.712 233.849C304.712 242.454 304.868 250.504 305.178 258H288.079L289.277 221.674L273.176 258H249.358C249.713 249.395 249.89 241.345 249.89 233.849C249.89 226.397 249.713 218.369 249.358 209.764H265.658ZM340.702 209.764C349.529 209.764 355.672 211.339 359.132 214.488C362.591 217.593 364.321 221.984 364.321 227.662C364.321 231.565 363.634 234.891 362.259 237.641C360.884 240.347 358.466 242.476 355.007 244.028C351.547 245.536 346.779 246.29 340.702 246.29H326.864V258H310.497C310.852 249.395 311.029 241.345 311.029 233.849C311.029 226.353 310.852 218.303 310.497 209.698H326.864V209.764H340.702ZM336.045 233.45C339.727 233.45 342.477 233.317 344.295 233.051C346.158 232.74 347.444 232.208 348.154 231.454C348.908 230.7 349.285 229.591 349.285 228.127C349.285 226.664 348.93 225.577 348.22 224.867C347.555 224.113 346.291 223.603 344.428 223.337C342.61 223.071 339.815 222.938 336.045 222.938H326.864V233.45H336.045ZM411.084 208.301C421.108 208.301 428.493 210.607 433.239 215.22C437.985 219.833 440.358 226.109 440.358 234.049C440.358 241.944 437.985 248.02 433.239 252.278C428.493 256.536 421.108 258.665 411.084 258.665C404.963 258.665 399.308 257.601 394.118 255.472C388.929 253.343 385.225 249.595 383.008 244.228C388.685 241.788 393.342 239.593 396.979 237.641C397.999 240.303 399.596 242.254 401.77 243.496C403.943 244.694 406.87 245.292 410.552 245.292C414.056 245.292 416.983 244.76 419.334 243.696C421.729 242.587 423.437 240.99 424.457 238.905H401.038V227.728H424.058C423.038 225.821 421.463 224.335 419.334 223.27C417.249 222.162 414.655 221.607 411.55 221.607C408.667 221.607 405.828 222.206 403.034 223.403C400.284 224.601 398.266 226.442 396.979 228.926C391.612 226.176 386.933 224.113 382.941 222.738C387.687 213.113 397.068 208.301 411.084 208.301ZM473.581 207.968C471.497 207.968 469.567 207.502 467.793 206.571C466.063 205.64 464.688 204.309 463.668 202.579C462.648 200.849 462.138 198.831 462.138 196.525H468.724C468.724 198.255 469.168 199.541 470.055 200.384C470.987 201.182 472.162 201.581 473.581 201.581C475.001 201.581 476.154 201.182 477.041 200.384C477.972 199.541 478.438 198.255 478.438 196.525H485.025C485.025 198.831 484.515 200.849 483.494 202.579C482.474 204.309 481.077 205.64 479.303 206.571C477.573 207.502 475.666 207.968 473.581 207.968ZM462.005 209.764L460.874 247.089L477.041 209.764H501.525C501.214 217.26 501.059 225.289 501.059 233.849C501.059 242.454 501.214 250.504 501.525 258H484.426L485.623 221.674L469.523 258H445.704C446.059 249.395 446.237 241.345 446.237 233.849C446.237 226.397 446.059 218.369 445.704 209.764H462.005ZM562.664 246.157H565.391V268.978H549.623V259.331H519.95V269.177H504.182V246.157H507.509C509.416 245.803 510.88 245.026 511.9 243.829C512.92 242.631 513.674 240.724 514.162 238.107C514.561 235.934 514.761 230.988 514.761 223.27L514.694 209.698L562.664 209.764V246.157ZM529.664 243.296C529.398 244.538 529.154 245.492 528.932 246.157H545.831V222.738H530.928L530.861 226.597C530.861 229.968 530.773 232.94 530.595 235.512C530.462 238.04 530.152 240.635 529.664 243.296ZM619.812 230.789C621.675 231.897 623.404 233.272 625.001 234.913C626.997 237.043 628.527 239.415 629.592 242.032C630.656 244.605 631.699 247.776 632.719 251.546C633.429 254.429 634.094 256.581 634.715 258H618.481C618.348 257.601 618.082 256.315 617.683 254.141C617.328 252.056 616.951 250.327 616.552 248.952C616.197 247.577 615.665 246.379 614.955 245.359C613.979 243.895 612.937 242.742 611.828 241.899C610.719 241.057 609.411 240.436 607.903 240.036C607.991 246.024 608.124 252.012 608.302 258H595.128C595.35 252.056 595.483 246.135 595.528 240.236C594.197 240.635 593.022 241.256 592.002 242.099C591.026 242.942 590.072 244.028 589.141 245.359C588.431 246.379 587.877 247.577 587.477 248.952C587.123 250.327 586.768 252.056 586.413 254.141C586.014 256.315 585.748 257.601 585.614 258H569.381C570.002 256.581 570.667 254.429 571.377 251.546C572.397 247.776 573.439 244.605 574.504 242.032C575.568 239.415 577.098 237.043 579.094 234.913C580.691 233.272 582.421 231.897 584.284 230.789L568.05 209.698H585.881C587.078 212.359 588.52 215.22 590.205 218.281C591.891 221.297 593.643 224.135 595.461 226.797C595.461 221.74 595.35 216.041 595.128 209.698H608.302C608.124 215.553 607.991 221.408 607.903 227.262C608.08 227.262 608.191 227.285 608.235 227.329C610.098 224.623 611.917 221.718 613.691 218.613C615.465 215.464 616.973 212.492 618.215 209.698H636.046L619.812 230.789ZM655.284 245.825C672.138 245.736 684.358 245.492 691.943 245.093C691.632 246.911 691.433 248.796 691.344 250.748C691.299 252.655 691.277 255.073 691.277 258H639.582C639.937 249.395 640.114 241.345 640.114 233.849C640.114 226.353 639.937 218.303 639.582 209.698H691.277V221.74H655.284V228.127C657.413 228.172 660.562 228.194 664.731 228.194C671.783 228.194 679.08 228.061 686.62 227.795V239.238C679.08 238.972 671.783 238.839 664.731 238.839C660.562 238.839 657.413 238.861 655.284 238.905V245.825ZM753.031 209.698C752.721 217.194 752.565 225.244 752.565 233.849C752.565 242.454 752.721 250.504 753.031 258H737.396V239.903H712.912V258H697.278C697.632 249.395 697.81 241.345 697.81 233.849C697.81 226.353 697.632 218.303 697.278 209.698H712.912V227.795H737.396V209.698H753.031ZM787.626 258.665C777.601 258.665 770.216 256.536 765.471 252.278C760.725 248.02 758.352 241.944 758.352 234.049C758.352 226.109 760.725 219.833 765.471 215.22C770.216 210.607 777.601 208.301 787.626 208.301C801.642 208.301 811.023 213.113 815.769 222.738C811.777 224.113 807.097 226.176 801.73 228.926C800.444 226.442 798.404 224.601 795.609 223.403C792.859 222.206 790.043 221.607 787.16 221.607C782.902 221.607 779.731 222.738 777.646 225C775.561 227.218 774.519 229.968 774.519 233.25C774.519 236.799 775.628 239.704 777.845 241.966C780.108 244.184 783.545 245.292 788.158 245.292C791.839 245.292 794.767 244.694 796.94 243.496C799.113 242.254 800.71 240.303 801.73 237.641C805.367 239.593 810.025 241.788 815.702 244.228C813.484 249.595 809.781 253.343 804.591 255.472C799.402 257.601 793.747 258.665 787.626 258.665ZM837.415 209.764L836.284 247.089L852.451 209.764H876.935C876.625 217.26 876.469 225.289 876.469 233.849C876.469 242.454 876.625 250.504 876.935 258H859.836L861.034 221.674L844.933 258H821.115C821.47 249.395 821.647 241.345 821.647 233.849C821.647 226.397 821.47 218.369 821.115 209.764H837.415Z" fill="black"/>
</svg>
